<?xml version="1.0" encoding="UTF-8"?><svg id="Layer_2" xmlns="http://www.w3.org/2000/svg" viewBox="0 0 419.03 109.34"><g id="Layer_1-2"><path d="m135.88,53.09c1.49.52,1.49,2.62,0,3.15L2.22,108.55c-1.08.38-2.22-.42-2.22-1.57V2.35C0,1.2,1.14.4,2.22.78l133.66,52.31Zm211.13,54.86V1.38c0-.76-.62-1.38-1.38-1.38h-55.06c-.76,0-1.38.62-1.38,1.38v106.57c0,.76.62,1.38,1.38,1.38h55.06c.76,0,1.38-.62,1.38-1.38Zm-150.8,0L252.55,1.38c0-.76-.34-1.38-.76-1.38h-30.13c-.42,0-.76.62-.76,1.38l-56.34,106.57c0,.76.34,1.38.76,1.38h30.13c.42,0,.76-.62.76-1.38Zm222.82,0V1.38c0-.76-.62-1.38-1.38-1.38h-55.06c-.76,0-1.38.62-1.38,1.38v106.57c0,.76.62,1.38,1.38,1.38h55.06c.76,0,1.38-.62,1.38-1.38Z"/></g></svg>